# xmcd CD database file
# 
# Track frame offsets:
# 	150
# 	11792
# 	26651
# 	41193
# 	61275
# 	77452
# 	93631
# 	109803
# 	128087
# 	140975
# 	158069
# 	173957
# 	198451
# 
# Disc length: 2910 seconds
# 
# Submitted via: Nero 5.5.8.2
# 
# Revision: 0
# Processed by: cddbd v1.4PL0 Copyright (c) Steve Scherf et al.
#
DISCID=b50b5c0d
DTITLE=Brad Craig - Get It Right
DYEAR=1900
DGENRE=
TTITLE0=Get It Right
TTITLE1=Not Home
TTITLE2=Self Made Man
TTITLE3=Blue Fuse
TTITLE4=A Little Light
TTITLE5=Silver Creek
TTITLE6=Club 54
TTITLE7=Song For WTC
TTITLE8=Jam 4 Free
TTITLE9=Bored To Tears
TTITLE10=Who Knows
TTITLE11=Jojo
TTITLE12=Data Track
EXTD=MP3.com
EXTT0=MP3.com
EXTT1=MP3.com
EXTT2=MP3.com
EXTT3=MP3.com
EXTT4=MP3.com
EXTT5=MP3.com
EXTT6=MP3.com
EXTT7=MP3.com
EXTT8=MP3.com
EXTT9=MP3.com
EXTT10=MP3.com
EXTT11=MP3.com
EXTT12=MP3.com
PLAYORDER=
